<svg width="18" height="17" viewBox="0 0 18 17" fill="none" xmlns="http://www.w3.org/2000/svg">
<path d="M1.96149 13.2392V15.2053H16.0385V13.2392H1.96149ZM1.96149 3.87055H4.40624C4.34011 3.74555 4.28539 3.58984 4.24205 3.40342C4.19873 3.21699 4.17707 3.04631 4.17707 2.89138C4.17707 2.22223 4.41205 1.65345 4.88201 1.18505C5.35197 0.716631 5.91445 0.482422 6.56947 0.482422C7.00152 0.482422 7.40117 0.590894 7.76841 0.807839C8.13566 1.02477 8.42511 1.30156 8.63676 1.63821L9.01041 2.21476L9.38405 1.63821C9.60959 1.28767 9.89871 1.00741 10.2514 0.797422C10.6041 0.587422 10.9823 0.482422 11.3859 0.482422C12.0684 0.482422 12.6452 0.713609 13.1163 1.17598C13.5874 1.63835 13.8229 2.21321 13.8229 2.90057C13.8229 3.04722 13.8055 3.19777 13.7708 3.35221C13.7361 3.50666 13.684 3.67944 13.6146 3.87055H16.0385C16.4232 3.87055 16.7567 4.01178 17.0392 4.29423C17.3216 4.57668 17.4629 4.91024 17.4629 5.29492V15.2053C17.4629 15.5886 17.3216 15.921 17.0392 16.2024C16.7567 16.4839 16.4232 16.6246 16.0385 16.6246H1.96149C1.57817 16.6246 1.24577 16.4839 0.964302 16.2024C0.682843 15.921 0.542114 15.5886 0.542114 15.2053V5.29492C0.542114 4.91024 0.682843 4.57668 0.964302 4.29423C1.24577 4.01178 1.57817 3.87055 1.96149 3.87055ZM1.96149 10.8955H16.0385V5.29492H11.0004L13.014 8.11105L11.9592 8.89592L8.99999 4.76096L6.04076 8.89592L4.98595 8.11105L7.00949 5.29492H1.96149V10.8955ZM6.59103 3.99555C6.89659 3.99555 7.157 3.88791 7.37228 3.67263C7.58756 3.45735 7.6952 3.19694 7.6952 2.89138C7.6952 2.58916 7.58756 2.32957 7.37228 2.11263C7.157 1.89569 6.89659 1.78721 6.59103 1.78721C6.28548 1.78721 6.02506 1.89569 5.80978 2.11263C5.5945 2.32957 5.48686 2.58916 5.48686 2.89138C5.48686 3.19694 5.5945 3.45735 5.80978 3.67263C6.02506 3.88791 6.28548 3.99555 6.59103 3.99555ZM11.3881 3.99555C11.7069 3.99555 11.9741 3.88791 12.1897 3.67263C12.4053 3.45735 12.5131 3.19694 12.5131 2.89138C12.5131 2.58916 12.4053 2.32957 12.1897 2.11263C11.9741 1.89569 11.7069 1.78721 11.3881 1.78721C11.0964 1.78721 10.843 1.89569 10.6277 2.11263C10.4124 2.32957 10.3048 2.58916 10.3048 2.89138C10.3048 3.19694 10.4124 3.45735 10.6277 3.67263C10.843 3.88791 11.0964 3.99555 11.3881 3.99555Z" fill="#9F56D4"/>
</svg>
